<svg width="92" height="101" viewBox="0 0 92 101" fill="none" xmlns="http://www.w3.org/2000/svg">
<path d="M22.4921 96.7008C18.6727 95.4447 13.1558 92.476 11.8826 91.6767C10.6095 90.8774 5.51694 87.49 0 81.6285C0 81.6285 8.05068 78.281 17.7648 74.1095C22.7884 71.9539 23.8702 70.6579 28.9375 68.4494C28.9375 68.4494 29.4668 65.8821 29.276 64.3548H33.2394C33.2394 64.3548 34.1447 64.8752 33.2394 58.8431C33.2394 58.8431 28.4083 57.5781 28.1825 47.9708C28.1825 47.9708 24.5541 49.1767 24.332 43.354C24.1806 39.4069 21.0859 35.9808 25.54 33.1522L23.2753 27.1202C23.2753 27.1202 18.7469 2.76746 31.768 6.34279C26.2752 -0.135509 62.9058 -6.61358 65.2854 13.9394C65.2854 13.9394 66.9823 25.0361 65.2854 32.631C65.2854 32.631 70.6349 32.0205 67.0584 42.164C67.0584 42.164 65.0964 49.4621 62.0761 47.8231C62.0761 47.8231 62.5695 57.0567 57.8136 58.6222C57.8136 58.6222 58.1521 63.5366 58.1521 63.8715L62.6832 64.5412C62.6832 64.5412 62.0018 68.5634 62.7961 69.0087C62.7961 69.0087 68.1681 72.6388 74.5706 74.2599C86.9138 77.3854 86.9979 77.0231 91.2417 79.1165C91.2417 79.1165 85.5126 85.8153 77.2372 91.258C68.9618 96.7008 63.2326 97.9568 57.2913 99.2128C51.35 100.469 42.438 100.887 35.6479 100.05C28.8578 99.2128 26.3116 97.9568 22.4921 96.7008Z" fill="#EAF2F5"/>
</svg>
